<svg xmlns="http://www.w3.org/2000/svg" width="1024" height="1024" viewBox="320 320 384 384"><path fill="#FD9903" d="m548 349 2.51.602c22.87 5.666 43.816 14.92 62.49 29.398l2.563 1.941C629.017 391.493 645.785 405.683 652 422l-3.467-.94c-14.709-3.558-31.648-5.175-45.533 1.94-13.318 8.438-24.354 20.698-35.125 32.063l-2.185 2.303c-9.46 10.01-18.657 20.238-27.69 30.634-3.779 4.349-7.53 8.658-11.621 12.719l-2.393 2.383-2.423 2.398-2.506 2.492A3748 3748 0 0 1 513 514c-5.43-4.457-10.142-9.25-14.836-14.468-7.731-8.505-15.578-16.894-23.5-25.22-4.773-5.025-9.493-10.084-14.112-15.25-33.567-37.467-33.567-37.467-56.456-39.17-10.448-.38-20.781.494-31.096 2.108 2.065-9.695 12.395-19.012 19-26l2.191-2.387C405.931 381.277 419.882 371.706 435 364l2.03-1.058c16.457-8.51 33.693-13.26 51.97-15.942l3.28-.521c17.889-2.302 38.211-1.72 55.72 2.521" id="svg-layer-1" style="pointer-events: all;" /><path d="M671 459c1.123 2.922 1.728 6.017 2.438 9.063l.66 2.822c6.94 30.968 6.509 61.753-3.098 92.115l-.635 2.026C662.136 590.53 647.085 612.405 628 631l-1.516 1.652C615.603 644.22 602.041 652.796 588 660l-1.854.964C572.844 667.8 556.146 675 541 675a3154 3154 0 0 1-.414-30.935c-.042-4.79-.098-9.58-.19-14.371-.758-40.649-.758-40.649 8.604-58.694q1.261-2.601 2.513-5.207C559.181 549.961 569.42 536.151 581 523c.59-.701 1.18-1.403 1.79-2.125 8.727-10.319 18.543-19.598 29.21-27.875l3.832-3.055C661.219 454.11 661.219 454.11 671 459M354 458c20.925 6.473 40.053 20.495 57 34l1.742 1.387C428.458 506.057 443.285 520.523 455 537l1.242 1.713c5.393 7.497 10.068 15.347 14.445 23.475l1.295 2.35c1.454 2.775 2.732 5.605 4.018 8.462l.907 1.75c9.07 17.785 6.897 38.261 6.574 57.635-.073 4.814-.104 9.629-.14 14.443-.074 9.391-.192 18.782-.341 28.172q-3.086-.45-6.17-.91l-3.472-.511c-4.7-.81-9.109-2.145-13.608-3.704l-2.714-.928c-42.7-14.995-76.564-46.282-96.153-86.904-5.182-11-9.256-22.137-11.883-34.043l-.458-1.978c-6.206-27.838-4.515-61.338 5.458-88.022M422 422h180c-2.074 4.149-4.56 6.822-7.807 10.019l-1.8 1.795c-1.963 1.957-3.934 3.907-5.905 5.858l-4.111 4.095q-5.419 5.397-10.847 10.782-8.661 8.599-17.308 17.212-3.011 2.995-6.027 5.982c-5.456 5.42-10.865 10.814-15.847 16.68-1.886 2.206-3.91 4.252-5.97 6.296l-2.392 2.383-2.423 2.398-2.506 2.492A3748 3748 0 0 1 513 514c-5.44-4.54-10.498-9.35-15.506-14.36l-2.485-2.476q-4.037-4.024-8.068-8.055l-5.62-5.61q-5.871-5.863-11.738-11.73-6.787-6.788-13.587-13.562-6.548-6.528-13.085-13.068-2.782-2.78-5.568-5.554a3580 3580 0 0 1-7.743-7.742l-2.347-2.33-2.111-2.124-1.85-1.848C422 424 422 424 422 422" id="svg-layer-2" style="pointer-events: all;" /></svg>
